<svg xmlns="http://www.w3.org/2000/svg" width="24" height="24" viewBox="0 0 24 24">
  <g id="Group_1428" data-name="Group 1428" transform="translate(-40 -314.705)">
    <rect id="Rectangle_1478" data-name="Rectangle 1478" width="24" height="24" transform="translate(40 314.705)" fill="none"/>
    <path id="facebook-square" d="M18.354,33.967V48.388a1.967,1.967,0,0,1-1.967,1.967H12.893v-7.26h2.483l.356-2.77H12.893v-1.77c0-.8.221-1.348,1.372-1.348h1.467V34.733a19.721,19.721,0,0,0-2.139-.111,3.339,3.339,0,0,0-3.564,3.663v2.044H7.538V43.1h2.5v7.256H1.967A1.967,1.967,0,0,1,0,48.388V33.967A1.967,1.967,0,0,1,1.967,32H16.388A1.967,1.967,0,0,1,18.354,33.967Z" transform="translate(42.963 285.963)" fill="#fff"/>
  </g>
</svg>
