<svg xmlns="http://www.w3.org/2000/svg" width="232.286" height="235.337" viewBox="0 0 232.286 235.337">
  <g id="Group_1" data-name="Group 1" transform="translate(-422.776 -70.146)">
    <path id="Path_1" data-name="Path 1" d="M608.07,135.652l-.6-.811a2.2,2.2,0,0,0-3.033-.488c-47.522,32.739-123.581,1.931-129.012-.341l-.027-.02a1.844,1.844,0,0,0-2.542.327l-1.067,1.336a1.837,1.837,0,0,0,.328,2.614q.436.329.991.739a67.258,67.258,0,0,0,134.419-.273l.019-.013A2.168,2.168,0,0,0,608.07,135.652ZM540.318,198.19a61.955,61.955,0,0,1-61.524-55.171,210.589,210.589,0,0,0,34.354,18.854c18.254,7.835,35.646,11.764,51.622,11.764a84.336,84.336,0,0,0,28.052-4.6A61.9,61.9,0,0,1,540.318,198.19Zm56.436-36.509c-36.314,16.441-78.324-1.467-102.6-15.474a227.7,227.7,0,0,0,27.3,6.216,173.685,173.685,0,0,0,27.686,2.339c20.427,0,38.273-4.223,52.768-12.5A61.243,61.243,0,0,1,596.754,161.681Zm-25.118-39.144a9.034,9.034,0,1,0-9.042-9.034A9.038,9.038,0,0,0,571.636,122.537ZM515.855,113.5a21.679,21.679,0,1,0-21.7-21.678A21.687,21.687,0,0,0,515.855,113.5Z" fill="#0f1f12" fill-rule="evenodd"/>
    <path id="Path_2" data-name="Path 2" d="M564.673,173.558c-15.962,0-33.338-3.922-51.577-11.742A210.351,210.351,0,0,1,478.771,143,61.84,61.84,0,0,0,592.7,168.963,84.328,84.328,0,0,1,564.673,173.558Z" fill="#e52d18"/>
    <path id="Path_3" data-name="Path 3" d="M549.34,154.7a172.345,172.345,0,0,1-27.639-2.348,226.161,226.161,0,0,1-27.26-6.239c24.23,14.061,66.17,32.037,102.422,15.532a61.769,61.769,0,0,0,5.156-19.495C587.548,150.462,569.732,154.7,549.34,154.7Z" fill="#f67811"/>
    <text id="Freelance_DVEVELOPER" data-name="Freelance
DVEVELOPER" transform="translate(539.547 257.698) rotate(-4)" fill="#0f1f12" font-size="54" font-family="SegoeUI, Segoe UI"><tspan x="-112.957" y="0">Freelance</tspan><tspan font-size="29"><tspan x="-83.885" y="32.28">DVEVELOPER</tspan></tspan></text>
  </g>
</svg>
